<svg xmlns="http://www.w3.org/2000/svg" xmlns:xlink="http://www.w3.org/1999/xlink" viewBox="0 0 30 20.79"><defs><style>.cls-1{opacity:0.78;isolation:isolate;fill:url(#未命名的渐变);}.cls-2{fill:url(#未命名的渐变_2);}.cls-3{fill:#5fdea7;}.cls-4{fill:#008cff;}.cls-5{fill:url(#未命名的渐变_3);}.cls-6{fill:#5ac4f4;}.cls-7{fill:url(#未命名的渐变_4);}.cls-8{fill:#00c4ff;}</style><linearGradient id="未命名的渐变" x1="-1100.8" y1="2741.15" x2="-1101.35" y2="2740.71" gradientTransform="matrix(51.23, -4.48, -2.43, -27.81, 63086.29, 71305.23)" gradientUnits="userSpaceOnUse"><stop offset="0" stop-color="#72efb9"/><stop offset="1" stop-color="#005499"/></linearGradient><linearGradient id="未命名的渐变_2" x1="-1077.48" y1="2658.44" x2="-1077.9" y2="2658.04" gradientTransform="matrix(14.51, -2.56, -2.76, -15.63, 22985.93, 38805.51)" gradientUnits="userSpaceOnUse"><stop offset="0" stop-color="#5fdea7"/><stop offset="1" stop-color="#5ac4f4"/></linearGradient><linearGradient id="未命名的渐变_3" x1="-1066.38" y1="2720.56" x2="-1066.65" y2="2721.18" gradientTransform="matrix(21.56, 0, 0, -22.73, 23010.63, 61843.42)" gradientUnits="userSpaceOnUse"><stop offset="0" stop-color="#7ac4f0"/><stop offset="1" stop-color="#00c4ff"/></linearGradient><linearGradient id="未命名的渐变_4" x1="-1090.83" y1="2750.28" x2="-1091.49" y2="2749.69" gradientTransform="matrix(26.62, -3.74, -4.31, -30.69, 40919.58, 80321.87)" gradientUnits="userSpaceOnUse"><stop offset="0" stop-color="#00c4ff"/><stop offset="0.13" stop-color="#00c4ff"/><stop offset="1" stop-color="#008cff"/></linearGradient></defs><title>logo_顶部导航</title><g id="图层_2" data-name="图层 2"><g id="图层_1-2" data-name="图层 1"><g id="Page-1"><g id="Artboard-Copy-2"><g id="Group-4"><path id="Path-114-Copy" class="cls-1" d="M1.61,16.75A81.14,81.14,0,0,0,14.32,11.4Q23.06,7.11,25,4A3.13,3.13,0,0,0,26.58,6.8s.64-1.15-11,5.13Q4,18.21,3.14,20Z"/><path id="Path-115-Copy" class="cls-2" d="M24.07,5.63a4.86,4.86,0,0,1-.21,3.55,7.62,7.62,0,0,1-2.62,2.68l3.33,1.74A6.09,6.09,0,0,1,25,9.69,5.76,5.76,0,0,1,28,7.5Z"/><circle id="Oval-44-Copy-2" class="cls-3" cx="26.99" cy="4.7" r="3.01" transform="translate(4.58 20.46) rotate(-45)"/><circle id="Oval-44-Copy-3" class="cls-4" cx="3.01" cy="17.78" r="3.01" transform="translate(-11.69 7.33) rotate(-45)"/><path id="Path-113-Copy" class="cls-5" d="M14.49,3.26q1.1,4.15,2.57,5.67a14,14,0,0,0,4.75,2.86q-2.74.48-3,2.85A15.67,15.67,0,0,0,16.3,9.76,17.71,17.71,0,0,0,11,6Z"/><circle id="Oval-44-Copy-4" class="cls-6" cx="21.78" cy="14.78" r="3.01" transform="translate(-4.07 19.73) rotate(-45)"/><path id="Path-107-Copy" class="cls-7" d="M8.88,2A18.14,18.14,0,0,1,6.6,10a19.74,19.74,0,0,1-5.34,5.71,3.31,3.31,0,0,1,3.91,2.41,22.52,22.52,0,0,1,2.49-7.37,26,26,0,0,1,5.66-5.89Q13.52,4.8,8.88,2Z"/><circle id="Oval-44-Copy-5" class="cls-8" cx="11.51" cy="3.01" r="3.01" transform="translate(1.25 9.02) rotate(-45)"/></g></g></g></g></g></svg>